<?xml version="1.0" encoding="UTF-8"?><svg id="Calque_2" xmlns="http://www.w3.org/2000/svg" viewBox="0 0 198.79 228.53"><defs><style>.cls-1{fill:none;stroke:#2952a0;stroke-linejoin:round;stroke-width:3px;}.cls-2,.cls-3,.cls-4,.cls-5{stroke-width:0px;}.cls-3{fill:#2952a0;}.cls-4{fill:#bebebe;}.cls-5{fill:#e6e5e3;}</style></defs><g id="OBJECTS"><path class="cls-1" d="m193.84,178.82l-81.33,47.01c-2.77,1.6-6.18,1.6-8.95,0,0,0-83.69-49.5-98.52-56.97,0,0-7.58-4.76-.58-10.76,7.52-6.44,37-26,37-26l44-22,86,42,23,17s6.74,5.45-.63,9.72Z"/><path class="cls-4" d="m195.21,157.82l-112.53-64.59-.22-88.75c0-2.39,3.45-3.65,6.18-4.28,1.94-.45,3.98-.12,5.7.87l96.14,55.07c2.77,1.59,4.49,4.54,4.5,7.74l.23,93.94Z"/><path class="cls-3" d="m192.22,156.37l-109.29-62.73-.23-89.16c0-2.58,2.78-4.19,5.01-2.91l100.72,57.7c2.19,1.26,3.55,3.59,3.55,6.11l.23,91Z"/><polygon class="cls-2" points="87.2 6.74 187.19 64.13 187.39 148.07 87.2 90.56 87.2 6.74"/><path class="cls-4" d="m4.17,140.81c.14-.1,87.37-42.56,87.37-42.56l103.29,59.57-81.33,47.01c-2.77,1.6-6.18,1.6-8.95,0,0,0-84.15-48.65-98.52-56.97-1.29-.75-2.07-2.12-2.07-3.6l.2-3.45Z"/><path class="cls-5" d="m192.09,155.95l-109.16-62.95L5.73,137.61c-2.23,1.29-2.23,4.51,0,5.8l100.5,58.08c2.19,1.26,4.88,1.26,7.07,0l78.79-45.54Z"/><path class="cls-3" d="m161.87,157.89c2.17,1.25,3.26,1.87,5.43,3.12,2.2-1.24,3.3-1.86,5.49-3.11-2.17-1.25-3.26-1.87-5.43-3.12-2.2,1.24-3.3,1.86-5.49,3.11Z"/><path class="cls-3" d="m153.85,153.28c2.17,1.25,3.26,1.87,5.44,3.12,2.2-1.24,3.3-1.86,5.49-3.11-2.17-1.25-3.26-1.87-5.44-3.12-2.2,1.24-3.3,1.86-5.49,3.11Z"/><path class="cls-3" d="m145.83,148.67c2.17,1.25,3.26,1.87,5.44,3.12,2.2-1.24,3.3-1.86,5.49-3.11-2.17-1.25-3.26-1.87-5.44-3.12-2.2,1.24-3.3,1.86-5.49,3.11Z"/><path class="cls-3" d="m137.81,144.07c2.17,1.25,3.26,1.87,5.44,3.12,2.2-1.24,3.3-1.86,5.49-3.11-2.17-1.25-3.26-1.87-5.44-3.12-2.2,1.24-3.3,1.86-5.49,3.11Z"/><path class="cls-3" d="m129.78,139.46c2.17,1.25,3.26,1.87,5.44,3.12,2.2-1.24,3.3-1.86,5.49-3.11-2.17-1.25-3.26-1.87-5.44-3.12-2.2,1.24-3.3,1.86-5.49,3.11Z"/><path class="cls-3" d="m121.76,134.85c2.17,1.25,3.26,1.87,5.44,3.12,2.2-1.24,3.3-1.86,5.49-3.11-2.17-1.25-3.26-1.87-5.44-3.12-2.2,1.24-3.3,1.86-5.49,3.11Z"/><path class="cls-3" d="m113.74,130.25c2.17,1.25,3.26,1.87,5.44,3.12,2.2-1.24,3.3-1.86,5.49-3.11-2.17-1.25-3.26-1.87-5.44-3.12-2.2,1.24-3.3,1.86-5.49,3.11Z"/><path class="cls-3" d="m105.71,125.64c2.17,1.25,3.26,1.87,5.44,3.12,2.2-1.24,3.3-1.86,5.49-3.11-2.17-1.25-3.26-1.87-5.44-3.12-2.2,1.24-3.3,1.86-5.49,3.11Z"/><path class="cls-3" d="m97.69,121.03c2.17,1.25,3.26,1.87,5.44,3.12,2.2-1.24,3.3-1.86,5.49-3.11-2.17-1.25-3.26-1.87-5.44-3.12-2.2,1.24-3.3,1.86-5.49,3.11Z"/><path class="cls-3" d="m89.67,116.42c2.17,1.25,3.26,1.87,5.44,3.12,2.2-1.24,3.3-1.86,5.49-3.11-2.17-1.25-3.26-1.87-5.44-3.12-2.2,1.24-3.3,1.86-5.49,3.11Z"/><path class="cls-3" d="m81.65,111.82c2.17,1.25,3.26,1.87,5.44,3.12,2.2-1.24,3.3-1.86,5.49-3.11-2.17-1.25-3.26-1.87-5.44-3.12-2.2,1.24-3.3,1.86-5.49,3.11Z"/><path class="cls-3" d="m73.62,107.21c2.17,1.25,3.26,1.87,5.43,3.12,2.2-1.24,3.3-1.86,5.49-3.11-2.17-1.25-3.26-1.87-5.43-3.12-2.2,1.24-3.3,1.86-5.49,3.11Z"/><path class="cls-3" d="m154.16,162.25c2.17,1.25,3.26,1.87,5.43,3.12,2.2-1.24,3.3-1.86,5.5-3.11-2.17-1.25-3.26-1.87-5.43-3.12-2.2,1.24-3.3,1.86-5.5,3.11Z"/><path class="cls-3" d="m146.14,157.64c2.17,1.25,3.26,1.87,5.44,3.12,2.2-1.24,3.3-1.86,5.5-3.11-2.17-1.25-3.26-1.87-5.44-3.12-2.2,1.24-3.3,1.86-5.5,3.11Z"/><path class="cls-3" d="m138.12,153.03c2.17,1.25,3.26,1.87,5.44,3.12,2.2-1.24,3.3-1.86,5.5-3.11-2.17-1.25-3.26-1.87-5.44-3.12-2.2,1.24-3.3,1.86-5.5,3.11Z"/><path class="cls-3" d="m130.09,148.43c2.17,1.25,3.26,1.87,5.44,3.12,2.2-1.24,3.3-1.86,5.5-3.11-2.17-1.25-3.26-1.87-5.44-3.12-2.2,1.24-3.3,1.86-5.5,3.11Z"/><path class="cls-3" d="m122.07,143.82c2.17,1.25,3.26,1.87,5.44,3.12,2.2-1.24,3.3-1.86,5.5-3.11-2.17-1.25-3.26-1.87-5.44-3.12-2.2,1.24-3.3,1.86-5.5,3.11Z"/><path class="cls-3" d="m114.05,139.21c2.17,1.25,3.26,1.87,5.44,3.12,2.2-1.24,3.3-1.86,5.5-3.11-2.17-1.25-3.26-1.87-5.44-3.12-2.2,1.24-3.3,1.86-5.5,3.11Z"/><path class="cls-3" d="m106.02,134.61c2.17,1.25,3.26,1.87,5.44,3.12,2.2-1.24,3.3-1.86,5.5-3.11-2.17-1.25-3.26-1.87-5.44-3.12-2.2,1.24-3.3,1.86-5.5,3.11Z"/><path class="cls-3" d="m98,130c2.17,1.25,3.26,1.87,5.44,3.12,2.2-1.24,3.3-1.86,5.5-3.11-2.17-1.25-3.26-1.87-5.44-3.12-2.2,1.24-3.3,1.86-5.5,3.11Z"/><path class="cls-3" d="m89.98,125.39c2.17,1.25,3.26,1.87,5.44,3.12,2.2-1.24,3.3-1.86,5.5-3.11-2.17-1.25-3.26-1.87-5.44-3.12-2.2,1.24-3.3,1.86-5.5,3.11Z"/><path class="cls-3" d="m81.96,120.78c2.17,1.25,3.26,1.87,5.44,3.12,2.2-1.24,3.3-1.86,5.5-3.11-2.17-1.25-3.26-1.87-5.44-3.12-2.2,1.24-3.3,1.86-5.5,3.11Z"/><path class="cls-3" d="m73.93,116.18c2.17,1.25,3.26,1.87,5.44,3.12,2.2-1.24,3.3-1.86,5.5-3.11-2.17-1.25-3.26-1.87-5.44-3.12-2.2,1.24-3.3,1.86-5.5,3.11Z"/><path class="cls-3" d="m65.91,111.57c3.64,2.09,5.47,3.14,9.11,5.23,2.2-1.24,3.3-1.86,5.5-3.11-3.65-2.09-5.47-3.14-9.11-5.23-2.2,1.24-3.3,1.86-5.5,3.11Z"/><path class="cls-3" d="m142.86,164.54c3.61,2.07,5.42,3.11,9.03,5.18,2.2-1.24,3.3-1.86,5.5-3.11-3.61-2.07-5.42-3.11-9.03-5.18-2.2,1.24-3.3,1.86-5.5,3.11Z"/><path class="cls-3" d="m138.43,162c2.17,1.25,3.26,1.87,5.44,3.12l5.5-3.11c-2.17-1.25-3.26-1.87-5.44-3.12l-5.5,3.11Z"/><path class="cls-3" d="m130.4,157.39c2.17,1.25,3.26,1.87,5.44,3.12,2.2-1.24,3.3-1.86,5.5-3.11-2.17-1.25-3.26-1.87-5.44-3.12-2.2,1.24-3.3,1.86-5.5,3.11Z"/><path class="cls-3" d="m122.38,152.79c2.17,1.25,3.26,1.87,5.44,3.12l5.5-3.11c-2.17-1.25-3.26-1.87-5.44-3.12-2.2,1.24-3.3,1.86-5.5,3.11Z"/><path class="cls-3" d="m114.36,148.18c2.17,1.25,3.26,1.87,5.44,3.12,2.2-1.24,3.3-1.86,5.5-3.11-2.17-1.25-3.26-1.87-5.44-3.12-2.2,1.24-3.3,1.86-5.5,3.11Z"/><path class="cls-3" d="m106.33,143.57c2.17,1.25,3.26,1.87,5.44,3.12,2.2-1.24,3.3-1.86,5.5-3.11-2.17-1.25-3.26-1.87-5.44-3.12-2.2,1.24-3.3,1.86-5.5,3.11Z"/><path class="cls-3" d="m98.31,138.97c2.17,1.25,3.26,1.87,5.44,3.12,2.2-1.24,3.3-1.86,5.5-3.11-2.17-1.25-3.26-1.87-5.44-3.12l-5.5,3.11Z"/><path class="cls-3" d="m90.29,134.36c2.17,1.25,3.26,1.87,5.44,3.12l5.5-3.11c-2.17-1.25-3.26-1.87-5.44-3.12-2.2,1.24-3.3,1.86-5.5,3.11Z"/><path class="cls-3" d="m82.27,129.75c2.17,1.25,3.26,1.87,5.44,3.12,2.2-1.24,3.3-1.86,5.5-3.11-2.17-1.25-3.26-1.87-5.44-3.12-2.2,1.24-3.3,1.86-5.5,3.11Z"/><path class="cls-3" d="m74.24,125.14c2.17,1.25,3.26,1.87,5.44,3.12,2.2-1.24,3.3-1.86,5.5-3.11-2.17-1.25-3.26-1.87-5.44-3.12l-5.5,3.11Z"/><path class="cls-3" d="m66.22,120.54c2.17,1.25,3.26,1.87,5.44,3.12,2.2-1.24,3.3-1.86,5.5-3.11-2.17-1.25-3.26-1.87-5.44-3.12l-5.5,3.11Z"/><path class="cls-3" d="m58.2,115.93c2.17,1.25,3.26,1.87,5.43,3.12l5.5-3.11c-2.17-1.25-3.26-1.87-5.43-3.12-2.2,1.24-3.3,1.86-5.5,3.11Z"/><path class="cls-3" d="m138.73,170.97c2.17,1.25,3.26,1.87,5.43,3.12,2.2-1.24,3.3-1.86,5.5-3.11-2.17-1.25-3.26-1.87-5.43-3.12-2.2,1.24-3.3,1.86-5.5,3.11Z"/><path class="cls-3" d="m130.71,166.36c2.17,1.25,3.26,1.87,5.44,3.12,2.2-1.24,3.3-1.86,5.5-3.11-2.17-1.25-3.26-1.87-5.44-3.12-2.2,1.24-3.3,1.86-5.5,3.11Z"/><path class="cls-3" d="m122.69,161.75c2.17,1.25,3.26,1.87,5.44,3.12,2.2-1.24,3.3-1.86,5.5-3.11-2.17-1.25-3.26-1.87-5.44-3.12-2.2,1.24-3.3,1.86-5.5,3.11Z"/><path class="cls-3" d="m114.67,157.15c2.17,1.25,3.26,1.87,5.44,3.12,2.2-1.24,3.3-1.86,5.5-3.11-2.17-1.25-3.26-1.87-5.44-3.12-2.2,1.24-3.3,1.86-5.5,3.11Z"/><path class="cls-3" d="m106.64,152.54c2.17,1.25,3.26,1.87,5.44,3.12,2.2-1.24,3.3-1.86,5.5-3.11-2.17-1.25-3.26-1.87-5.44-3.12-2.2,1.24-3.3,1.86-5.5,3.11Z"/><path class="cls-3" d="m98.62,147.93c2.17,1.25,3.26,1.87,5.44,3.12,2.2-1.24,3.3-1.86,5.5-3.11-2.17-1.25-3.26-1.87-5.44-3.12-2.2,1.24-3.3,1.86-5.5,3.11Z"/><path class="cls-3" d="m90.6,143.33c2.17,1.25,3.26,1.87,5.44,3.12,2.2-1.24,3.3-1.86,5.5-3.11-2.17-1.25-3.26-1.87-5.44-3.12-2.2,1.24-3.3,1.86-5.5,3.11Z"/><path class="cls-3" d="m82.58,138.72c2.17,1.25,3.26,1.87,5.44,3.12,2.2-1.24,3.3-1.86,5.5-3.11-2.17-1.25-3.26-1.87-5.44-3.12-2.2,1.24-3.3,1.86-5.5,3.11Z"/><path class="cls-3" d="m74.55,134.11c2.17,1.25,3.26,1.87,5.44,3.12,2.2-1.24,3.3-1.86,5.5-3.11-2.17-1.25-3.26-1.87-5.44-3.12-2.2,1.24-3.3,1.86-5.5,3.11Z"/><path class="cls-3" d="m66.53,129.5c2.17,1.25,3.26,1.87,5.44,3.12,2.2-1.24,3.3-1.86,5.5-3.11-2.17-1.25-3.26-1.87-5.44-3.12-2.2,1.24-3.3,1.86-5.5,3.11Z"/><path class="cls-3" d="m55.04,122.91c3.56,2.04,5.34,3.07,8.9,5.11,2.2-1.24,3.3-1.86,5.5-3.11-3.56-2.04-5.34-3.07-8.9-5.11-2.2,1.24-3.3,1.86-5.5,3.11Z"/><path class="cls-3" d="m50.49,120.29c2.17,1.25,3.26,1.87,5.43,3.12,2.2-1.24,3.3-1.86,5.5-3.11-2.17-1.25-3.26-1.87-5.43-3.12-2.2,1.24-3.3,1.86-5.5,3.11Z"/><path class="cls-3" d="m129.96,175.93c2.17,1.25,3.26,1.87,5.43,3.12,2.2-1.24,3.3-1.86,5.49-3.11-2.17-1.25-3.26-1.87-5.43-3.12-2.2,1.24-3.3,1.86-5.49,3.11Z"/><path class="cls-3" d="m121.93,171.32c2.17,1.25,3.26,1.87,5.44,3.12,2.2-1.24,3.3-1.86,5.49-3.11-2.17-1.25-3.26-1.87-5.44-3.12-2.2,1.24-3.3,1.86-5.49,3.11Z"/><path class="cls-3" d="m113.91,166.72c2.17,1.25,3.26,1.87,5.44,3.12,2.2-1.24,3.3-1.86,5.49-3.11-2.17-1.25-3.26-1.87-5.44-3.12-2.2,1.24-3.3,1.86-5.49,3.11Z"/><path class="cls-3" d="m65.77,139.07c15.18,8.72,30.37,17.44,45.55,26.16,2.2-1.24,3.3-1.86,5.49-3.11-15.18-8.72-30.37-17.44-45.55-26.16-2.2,1.24-3.3,1.86-5.49,3.11Z"/><path class="cls-3" d="m57.75,134.47c2.17,1.25,3.26,1.87,5.44,3.12,2.2-1.24,3.3-1.86,5.49-3.11-2.17-1.25-3.26-1.87-5.44-3.12-2.2,1.24-3.3,1.86-5.49,3.11Z"/><path class="cls-3" d="m49.73,129.86c2.17,1.25,3.26,1.87,5.44,3.12,2.2-1.24,3.3-1.86,5.49-3.11-2.17-1.25-3.26-1.87-5.44-3.12-2.2,1.24-3.3,1.86-5.49,3.11Z"/><path class="cls-3" d="m41.71,125.25c2.17,1.25,3.26,1.87,5.43,3.12,2.2-1.24,3.3-1.86,5.49-3.11-2.17-1.25-3.26-1.87-5.43-3.12-2.2,1.24-3.3,1.86-5.49,3.11Z"/><polygon class="cls-4" points="102.99 167.47 65.54 145.84 44.13 159.03 81.58 180.66 102.99 167.47"/></g></svg>