<?xml version="1.0" encoding="utf-8"?>
<!-- Generator: Adobe Illustrator 27.5.0, SVG Export Plug-In . SVG Version: 6.00 Build 0)  -->
<svg version="1.1" id="Calque_2" xmlns="http://www.w3.org/2000/svg" xmlns:xlink="http://www.w3.org/1999/xlink" x="0px" y="0px"
	 viewBox="0 0 288 560" style="enable-background:new 0 0 288 560;" xml:space="preserve">
<style type="text/css">
	.st0{fill:#FF6060;}
</style>
<polygon class="st0" points="109,300.3 89,275.4 107,255.9 100.8,255.9 77,281.5 77,255.9 70.8,255.9 70.8,300.3 77,300.3 77,288.2 
	85.4,279.2 102.8,300.3 "/>
<polygon class="st0" points="129.2,303.3 113,295 113.3,280.9 121.7,266.4 144.5,280 144.8,294.7 142.9,294.8 142.9,281.4 
	136.2,278.2 129.2,289 "/>
<polygon class="st0" points="138.5,298.5 134.5,300.5 134.5,291.2 138.5,289.2 "/>
<g>
	<path class="st0" d="M152.4,297.6l2.7-5.2c3.2,2.2,8.1,3.8,12.8,3.8c6.2,0,8.6-1.9,8.6-5.1c0-8.3-23.2-1.2-23.2-15.8
		c0-6.7,5.9-11,15.3-11c4.7,0,10.2,1.3,13.4,3.3l-2.9,5.2c-3.3-2.2-6.9-2.9-10.5-2.9c-5.8,0-8.6,2.2-8.6,5.1
		c0,8.7,23.2,1.6,23.2,15.9c0,6.7-6,10.9-15.8,10.9C161.4,302,155.4,300.1,152.4,297.6z"/>
</g>
<g>
	<path class="st0" d="M218.2,279.5v21.2h-6V296c-2.1,3.2-6,5-11.5,5c-7.9,0-12.9-4.3-12.9-10.3c0-5.7,3.6-10.2,14-10.2h10v-1.2
		c0-5.4-3.2-8.4-9.3-8.4c-4.1,0-8.4,1.5-11.1,3.7l-2.6-4.8c3.6-2.9,8.8-4.5,14.4-4.5C212.8,265.3,218.2,270,218.2,279.5z M211.9,290
		v-5h-9.7c-6.3,0-8.1,2.5-8.1,5.4c0,3.4,2.9,5.7,7.7,5.7C206.5,296.2,210.4,294.1,211.9,290z"/>
</g>
</svg>
