<?xml version="1.0" encoding="UTF-8"?><svg id="logo" xmlns="http://www.w3.org/2000/svg" viewBox="0 0 306.31 230.21"><defs><style>.cls-1{fill:#2a539f;}.cls-1,.cls-2{stroke-width:0px;}.cls-2{fill:#1d1d1b;}</style></defs><path class="cls-1" d="m232.42,20.33L242.68,0h3l15.35,36.89s-3.52-.72-7.38-9-7.72-12.14-7.72-12.14l-4.87,12.11h-3l-5.65-7.53Z"/><path class="cls-2" d="m235.42,20.33L245.68,0l18.35,36.89s-8.56,1.88-12.42-6.4-5.93-12.05-5.93-12.05l-4.61,9.41-5.65-7.53Z"/><path class="cls-2" d="m249.04.14l13.62-.14c1.86,0,3.71.53,5.25,1.6,3.89,2.71,6.26,6.32,6.26,10.28,0,1.56-.37,3.06-1.05,4.47-1.05,2.17-2.91,3.74-5.09,4.54l8.54,14.29c-6.73,4.71-9.52-.22-9.52-.22l-11-20.03,6.25-.3c1.71,0,3.1-1.41,3.1-3.15s-1.39-3.15-3.1-3.15l-9.21-.29-4.05-7.9Z"/></svg>