<?xml version="1.0" encoding="utf-8"?>
<!-- Generator: Adobe Illustrator 27.5.0, SVG Export Plug-In . SVG Version: 6.00 Build 0)  -->
<svg version="1.1" xmlns="http://www.w3.org/2000/svg" xmlns:xlink="http://www.w3.org/1999/xlink" x="0px" y="0px"
	 viewBox="0 0 1440 700" style="enable-background:new 0 0 1440 700;" xml:space="preserve">
<style type="text/css">
	.st0{opacity:0.65;}
	.st1{fill:url(#SVGID_1_);stroke:#1D1D1B;stroke-miterlimit:10;}
	.st2{clip-path:url(#SVGID_00000014635204361883237570000014473458674235683201_);}
	.st3{fill:#DADADA;}
	.st4{fill:#9B9B9A;}
	.st5{fill:#706F6F;}
	.st6{filter:url(#Adobe_OpacityMaskFilter);}
	.st7{fill:url(#SVGID_00000170270804534252457380000012961133019687971500_);}
	.st8{mask:url(#SVGID_00000183927284399029215450000013006083130308260029_);}
	.st9{fill:#A68466;}
	.st10{fill:#5A5A59;}
	.st11{fill:#17170F;}
</style>
<g id="Background">
</g>
<g id="Objects">
	<g class="st0">
		<linearGradient id="SVGID_1_" gradientUnits="userSpaceOnUse" x1="725.8317" y1="-445.9847" x2="723.0114" y2="890.6042">
			<stop  offset="0" style="stop-color:#2952A0"/>
			<stop  offset="0.2125" style="stop-color:#2B54A1"/>
			<stop  offset="0.2891" style="stop-color:#325AA5"/>
			<stop  offset="0.3436" style="stop-color:#3D65AB"/>
			<stop  offset="0.3877" style="stop-color:#4E75B4"/>
			<stop  offset="0.4256" style="stop-color:#648AC0"/>
			<stop  offset="0.459" style="stop-color:#80A4CF"/>
			<stop  offset="0.4893" style="stop-color:#A0C2E1"/>
			<stop  offset="0.5162" style="stop-color:#C4E5F5"/>
			<stop  offset="0.5213" style="stop-color:#CCECF9"/>
			<stop  offset="0.6694" style="stop-color:#CCECF9"/>
			<stop  offset="0.6726" style="stop-color:#C4E5F5"/>
			<stop  offset="0.6897" style="stop-color:#A0C2E1"/>
			<stop  offset="0.7089" style="stop-color:#80A4CF"/>
			<stop  offset="0.7301" style="stop-color:#648AC0"/>
			<stop  offset="0.7541" style="stop-color:#4E75B4"/>
			<stop  offset="0.782" style="stop-color:#3D65AB"/>
			<stop  offset="0.8167" style="stop-color:#325AA5"/>
			<stop  offset="0.8652" style="stop-color:#2B54A1"/>
			<stop  offset="1" style="stop-color:#2952A0"/>
		</linearGradient>
		<rect x="0.2" y="-270.8" class="st1" width="1448.1" height="1127.2"/>
		<g>
			<defs>
				<rect id="SVGID_00000013890664005986385900000000031904410298073987_" x="0.2" y="-270.8" width="1448.1" height="1127.2"/>
			</defs>
			<clipPath id="SVGID_00000019650703279066642080000003345745431477632149_">
				<use xlink:href="#SVGID_00000013890664005986385900000000031904410298073987_"  style="overflow:visible;"/>
			</clipPath>
			<g style="clip-path:url(#SVGID_00000019650703279066642080000003345745431477632149_);">
				<g>
					<path class="st3" d="M-62.2,279h1577.7V169.3c0,0-22.3,5.5-36.4-1.8c-14.1-7.3-24.7-0.9-30.5,1.8c-5.9,2.7-21.1,11-28.2,6.4
						c-7-4.6-17.6-11-17.6-11s0,16.5-10.6,16.5c-10.6,0-41.1-17.4-41.1-17.4s-9.4,4.6-24.7,5.5c-15.3,0.9-49.3-0.9-63.4-7.3
						c-14.1-6.4-30.5-8.2-51.7-8.2s-42.3-5.5-48.2-11c-5.9-5.5-17.6-9.1-45.8,11C1089,173.8,623.8,172,623.8,172
						s-59.9-23.8-77.5-31.1c-17.6-7.3-31.7-6.4-45.8-5.5c-14.1,0.9-41.1-3.7-57.6-11.9c-16.4-8.2-30.5-5.5-42.3,1.8
						c-11.7,7.3-54,21-69.3,22.9c-15.3,1.8-63.4-1.8-63.4-1.8s-7,0.9-11.7,5.5c-4.7,4.6-28.2,9.1-39.9,4.6
						c-11.7-4.6-41.1-31.1-54-43c-12.9-11.9-34.1-12.8-37.6-1.8c-3.5,11-4.7,16.5-17.6,24.7c-12.9,8.2-52.9,13.7-52.9,13.7
						s-28.2-0.9-37.6-19.2c-9.4-18.3-39.9-17.4-39.9-17.4L-62.2,279z"/>
					<path class="st4" d="M-46.7,323.7l1541.3-1.6l-0.2-127.1c0,0-43.5-8.2-62.3-3.6c-18.8,4.6-45.8,14.7-66.9,12.9
						c-21.1-1.8-54.1-18.2-78.7-17.3c-24.7,0.9-82.3-16.4-105.8-16.4c-23.5,0-48.2-19.2-69.4-29.2c-21.2-10-44.7-42-76.4-42
						c-31.7,0-35.2,14.7-42.3,14.7c-7,0-63.5-36.5-63.5-36.5l-106.8,44c0,0-19.9,22-45.8,28.4c-25.8,6.4-65.8,1.9-91.6-7.2
						c-25.9-9.1-50.5-3.6-68.1,0.1c-17.6,3.7-44.6,27.5-65.7,27.5c-21.1,0-52.9-0.9-76.3,9.2s-48.1,12.9-64.6,12.9
						c-16.4,0-65.8,1.9-95.1,15.6c-29.3,13.7-111.6,27.5-129.2,15.7c-17.6-11.9-36.5-52.1-51.8-53s-32.9-3.6-38.8-13.7
						c-5.9-10.1-27.1-34.7-59.9-12.7c-32.9,22-66.9,40.3-66.9,40.3L-46.7,323.7z"/>
					<path class="st5" d="M-29.3,340.3H1472V230.5c0,0-65.8,9.1-79.9,3.7c-14.1-5.5-51.7-6.4-72.8-5.5c-21.1,0.9-67-1.8-84.6-11
						c-17.6-9.1-30.5-6.4-43.5,0.9c-12.9,7.3-51.7-2.7-69.3,0c-17.6,2.7-29.4,20.1-51.7,20.1c-22.3,0-88.1-21.9-110.4-14.6
						c-22.3,7.3-71.7,33.8-86.9,32c-15.3-1.8-48.2-19.2-72.8-14.6c-24.7,4.6-45.8,33.8-57.6,30.2c-11.7-3.7-24.7-12.8-24.7-12.8
						s-14.1,13.7-34.1,3.7c-20-10.1-37.6-19.2-64.6-16.5s-49.3,11.9-57.6,3.7c-8.2-8.2-23.5-9.1-37.6-9.1
						c-14.1,0-49.3-25.6-77.5-25.6c-28.2,0-58.7,16.5-69.3,14.6c-10.6-1.8-35.2-22.9-47-34.8c-11.7-11.9-28.2-8.2-38.8-6.4
						c-10.6,1.8-15.3-16.5-44.6-19.2c-29.4-2.7-52.9,20.1-64.6,23.8c-11.7,3.7-25.8,0-31.7,3.7c-5.9,3.7-5.9,17.4-15.3,20.1
						c-9.4,2.7-34.1,0.9-42.3-3.7c-8.2-4.6-17.6-9.1-23.5-0.9c-5.9,8.2-23.5,18.3-30.5,12.8c-7-5.5-57.6-14.6-57.6-14.6L-29.3,340.3
						z"/>
					<path d="M-16.4,349.4h1479v-63.1c0,0-94-10.1-108.1-14.6c-14.1-4.6-25.8-1.8-30.5,2.7c-4.7,4.6-22.3,11.9-32.9,8.2
						c-10.6-3.7-55.2-27.4-74-27.4c-18.8,0-54,32-71.7,32.9c-17.6,0.9-86.9,14.6-104.6,14.6c-17.6,0-68.1,2.7-75.2-2.7
						c-7-5.5-16.4,0-23.5,3.7c-7,3.7-59.9,2.7-75.2,3.7c-15.3,0.9-48.2-6.4-68.1-1.8c-20,4.6-104.6,31.1-119.8,28.3
						c-15.3-2.7-90.5-35.7-118.7-33.8c-28.2,1.8-43.5-12.8-88.1-11c-44.6,1.8-105.7,7.3-129.2,4.6c-23.5-2.7-159.8,0.9-182.1-7.3
						c-22.3-8.2-83.4-16.5-99.9-15.5c-16.4,0.9-79.9,11.9-79.9,11.9L-16.4,349.4z"/>
				</g>
				<defs>
					<filter id="Adobe_OpacityMaskFilter" filterUnits="userSpaceOnUse" x="-62.2" y="349" width="1577.7" height="271.8">
						<feColorMatrix  type="matrix" values="1 0 0 0 0  0 1 0 0 0  0 0 1 0 0  0 0 0 1 0"/>
					</filter>
				</defs>
				
					<mask maskUnits="userSpaceOnUse" x="-62.2" y="349" width="1577.7" height="271.8" id="SVGID_00000034777791102751507640000011067582679229278880_">
					<g class="st6">
						
							<linearGradient id="SVGID_00000005257281510385058810000016428405611605425811_" gradientUnits="userSpaceOnUse" x1="699.1378" y1="348.8464" x2="694.8795" y2="827.2364">
							<stop  offset="0" style="stop-color:#FFFFFF"/>
							<stop  offset="1" style="stop-color:#000000"/>
						</linearGradient>
						
							<rect x="-186.2" y="347.8" style="fill:url(#SVGID_00000005257281510385058810000016428405611605425811_);" width="1766.6" height="455.1"/>
					</g>
				</mask>
				<g style="mask:url(#SVGID_00000034777791102751507640000011067582679229278880_);">
					<path class="st9" d="M-62.2,419.5h1577.7v109.7c0,0-22.3-5.5-36.4,1.8c-14.1,7.3-24.7,0.9-30.5-1.8c-5.9-2.7-21.1-11-28.2-6.4
						c-7,4.6-17.6,11-17.6,11s0-16.5-10.6-16.5c-10.6,0-41.1,17.4-41.1,17.4s-9.4-4.6-24.7-5.5c-15.3-0.9-49.3,0.9-63.4,7.3
						c-14.1,6.4-30.5,8.2-51.7,8.2s-42.3,5.5-48.2,11c-5.9,5.5-17.6,9.1-45.8-11c-28.2-20.1-493.4-18.3-493.4-18.3
						s-59.9,23.8-77.5,31.1c-17.6,7.3-31.7,6.4-45.8,5.5c-14.1-0.9-41.1,3.7-57.6,11.9c-16.4,8.2-30.5,5.5-42.3-1.8
						c-11.7-7.3-54-21-69.3-22.9c-15.3-1.8-63.4,1.8-63.4,1.8s-7-0.9-11.7-5.5c-4.7-4.6-28.2-9.1-39.9-4.6
						c-11.7,4.6-41.1,31.1-54,43c-12.9,11.9-34.1,12.8-37.6,1.8c-3.5-11-4.7-16.5-17.6-24.7c-12.9-8.2-52.9-13.7-52.9-13.7
						s-28.2,0.9-37.6,19.2C7.1,585.9-23.5,585-23.5,585L-62.2,419.5z"/>
					<path class="st4" d="M-46.7,374.8l1541.3,1.6l-0.2,127.1c0,0-43.5,8.2-62.3,3.6c-18.8-4.6-45.8-14.7-66.9-12.9
						c-21.1,1.8-54.1,18.2-78.7,17.3c-24.7-0.9-82.3,16.4-105.8,16.4c-23.5,0-48.2,19.2-69.4,29.2c-21.2,10-44.7,42-76.4,42
						c-31.7,0-35.2-14.7-42.3-14.7c-7,0-63.5,36.5-63.5,36.5l-106.8-44c0,0-19.9-22-45.8-28.4c-25.8-6.4-65.8-1.9-91.6,7.2
						c-25.9,9.1-50.5,3.6-68.1-0.1c-17.6-3.7-44.6-27.5-65.7-27.5c-21.1,0-52.9,0.9-76.3-9.2C451.1,508.8,426.5,506,410,506
						c-16.4,0-65.8-1.9-95.1-15.6c-29.3-13.7-111.6-27.5-129.2-15.7c-17.6,11.9-36.5,52.1-51.8,53c-15.3,0.9-32.9,3.6-38.8,13.7
						c-5.9,10.1-27.1,34.7-59.9,12.7c-32.9-22-66.9-40.3-66.9-40.3L-46.7,374.8z"/>
					<path class="st10" d="M-29.3,358.2H1472v109.7c0,0-65.8-9.1-79.9-3.7c-14.1,5.5-51.7,6.4-72.8,5.5c-21.1-0.9-67,1.8-84.6,11
						c-17.6,9.1-30.5,6.4-43.5-0.9c-12.9-7.3-51.7,2.7-69.3,0c-17.6-2.7-29.4-20.1-51.7-20.1c-22.3,0-88.1,21.9-110.4,14.6
						c-22.3-7.3-71.7-33.8-86.9-32c-15.3,1.8-48.2,19.2-72.8,14.6c-24.7-4.6-45.8-33.8-57.6-30.2c-11.7,3.7-24.7,12.8-24.7,12.8
						s-14.1-13.7-34.1-3.7c-20,10.1-37.6,19.2-64.6,16.5s-49.3-11.9-57.6-3.7c-8.2,8.2-23.5,9.1-37.6,9.1
						c-14.1,0-49.3,25.6-77.5,25.6c-28.2,0-58.7-16.5-69.3-14.6c-10.6,1.8-35.2,22.9-47,34.8c-11.7,11.9-28.2,8.2-38.8,6.4
						c-10.6-1.8-15.3,16.5-44.6,19.2c-29.4,2.7-52.9-20.1-64.6-23.8c-11.7-3.7-25.8,0-31.7-3.7c-5.9-3.7-5.9-17.4-15.3-20.1
						c-9.4-2.7-34.1-0.9-42.3,3.7c-8.2,4.6-17.6,9.1-23.5,0.9c-5.9-8.2-23.5-18.3-30.5-12.8c-7,5.5-57.6,14.6-57.6,14.6L-29.3,358.2
						z"/>
					<path class="st11" d="M-16.4,349h1479v63.1c0,0-94,10.1-108.1,14.6c-14.1,4.6-25.8,1.8-30.5-2.7c-4.7-4.6-22.3-11.9-32.9-8.2
						c-10.6,3.7-55.2,27.4-74,27.4c-18.8,0-54-32-71.7-32.9c-17.6-0.9-86.9-14.6-104.6-14.6c-17.6,0-68.1-2.7-75.2,2.7
						c-7,5.5-16.4,0-23.5-3.7c-7-3.7-59.9-2.7-75.2-3.7c-15.3-0.9-48.2,6.4-68.1,1.8c-20-4.6-104.6-31.1-119.8-28.3
						c-15.3,2.7-90.5,35.7-118.7,33.8c-28.2-1.8-43.5,12.8-88.1,11c-44.6-1.8-105.7-7.3-129.2-4.6c-23.5,2.7-159.8-0.9-182.1,7.3
						c-22.3,8.2-83.4,16.5-99.9,15.5c-16.4-0.9-79.9-11.9-79.9-11.9L-16.4,349z"/>
				</g>
			</g>
		</g>
	</g>
</g>
</svg>
