<?xml version="1.0" encoding="utf-8"?>
<!-- Generator: Adobe Illustrator 27.8.0, SVG Export Plug-In . SVG Version: 6.00 Build 0)  -->
<svg version="1.1" id="Calque_2_00000029763334995726528230000016882538965342759307_"
	 xmlns="http://www.w3.org/2000/svg" xmlns:xlink="http://www.w3.org/1999/xlink" x="0px" y="0px" viewBox="0 0 256.8 255.7"
	 style="enable-background:new 0 0 256.8 255.7;" xml:space="preserve">
<style type="text/css">
	.st0{fill:#2952A0;}
	.st1{fill:#FFFFFF;}
	.st2{font-family:'Arial-Black';}
	.st3{font-size:32px;}
</style>
<circle class="st0" cx="127.4" cy="128.9" r="127.6"/>
<path class="st1" d="M97.2,141.8v-8.7h-7.3c-0.4-2.4-1.2-4.6-2.4-6.6l5.3-4.8l-5.8-6.5l-5.2,4.7c-2.5-1.8-5.4-3.1-8.6-3.7v-7.1h-8.7
	v7.4c-2.5,0.6-4.8,1.7-6.9,3.1l-5.3-5.5l-6.3,6l5.6,5.8c-1.3,2.2-2.3,4.6-2.7,7.2h-8.4v8.7h8.7c0.5,2,1.3,3.8,2.2,5.5l-6.6,5.9
	l5.8,6.5l6.6-5.9c2.1,1.5,4.6,2.7,7.2,3.3v8.8h8.7v-8.6c2.3-0.4,4.5-1.2,6.5-2.3l5.8,6l6.3-6l-5.5-5.7c1.6-2.2,2.8-4.6,3.5-7.3H97.2
	z M54.1,136.8c0-8.4,6.9-15.3,15.3-15.3c8.4,0,15.3,6.9,15.3,15.3c0,8.4-6.9,15.3-15.3,15.3C61,152.1,54.1,145.2,54.1,136.8z"/>
<g>
	<path class="st1" d="M193.1,79.2H69c-1.7,0-3,1.3-3,3V103h6v-4.5h118.1v77.3H72v-4.3h-6v7.3c0,1.7,1.3,3,3,3h124.1c1.7,0,3-1.3,3-3
		V82.2C196.1,80.5,194.8,79.2,193.1,79.2z M172.7,92.5h-15.1c-1.7,0-3-1.3-3-3s1.3-3,3-3h15.1c1.7,0,3,1.3,3,3
		S174.4,92.5,172.7,92.5z M184.8,92.1h-2.3c-1.7,0-3-1.3-3-3s1.3-3,3-3h2.3c1.7,0,3,1.3,3,3S186.4,92.1,184.8,92.1z"/>
</g>
<text transform="matrix(1 0 0 1 105.1607 147.5248)" class="st1 st2 st3">API</text>
</svg>
