<?xml version="1.0" encoding="utf-8"?>
<!-- Generator: Adobe Illustrator 27.8.0, SVG Export Plug-In . SVG Version: 6.00 Build 0)  -->
<svg version="1.1" xmlns="http://www.w3.org/2000/svg" xmlns:xlink="http://www.w3.org/1999/xlink" x="0px" y="0px"
	 viewBox="0 0 256.8 255.7" style="enable-background:new 0 0 256.8 255.7;" xml:space="preserve">
<style type="text/css">
	.st0{fill:#2952A0;}
	.st1{fill:#FFFFFF;}
</style>
<g id="Calque_2_00000029763334995726528230000016882538965342759307_">
	<circle class="st0" cx="128.8" cy="127.8" r="127.6"/>
</g>
<g id="Calque_3">
	<g>
		<g>
			<path class="st1" d="M128,104c0,9.1,0,18.2,0,27.3c0,1.4-0.4,2.3-1.7,3c-2.8,1.5-4.1,4.8-3.3,7.8c0.9,3.1,3.6,5.2,6.7,5.2
				c3.2,0,5.9-2.1,6.8-5.2c0.9-3-0.4-6.3-3.3-7.8c-1.3-0.7-1.7-1.5-1.7-3c0-18.3,0-36.6,0-54.9c0-0.4,0-0.7,0-1.1
				c0.1-0.8,0.5-1.3,1.3-1.5c0.7-0.2,1.4,0,1.8,0.7c0.4,0.6,0.7,1.3,1.1,2c10.6,21.2,21.2,42.4,31.8,63.5c0.7,1.4,0.7,2.5,0,3.9
				c-3.9,7.7-7.8,15.4-11.6,23.2c-0.4,0.8-0.9,1.1-1.8,1.1c-16.2,0-32.5,0-48.7,0c-1,0-1.4-0.4-1.8-1.2c-3.9-7.9-7.8-15.7-11.8-23.6
				c-0.6-1.1-0.5-2,0-3.1c10.9-21.6,21.7-43.3,32.5-65c0.4-0.8,0.8-1.7,1.9-1.7c1.2,0,1.8,0.7,1.8,2.3C128,85.5,128,94.7,128,104z"
				/>
			<path class="st1" d="M150.4,61.7c6.7,2.8,12.8,6.5,18.1,11.4c11.6,10.7,17.9,24,18.8,39.8c0.1,1.2,0.4,1.4,1.5,1.4
				c3.9,0,3.9,0,3.9,3.8c0,2.6,0,5.2,0,7.8c0,1.8-0.5,2.4-2.3,2.4c-3.2,0-6.3,0-9.5,0c-1.6,0-2.2-0.6-2.2-2.2c0-3.3,0-6.5,0-9.8
				c0-1.4,0.7-2,2-2.1c0.3,0,0.5,0,0.8,0c2.5,0,2.5,0,2.3-2.6c-2-25-20.7-45.3-45.3-49.2c-1.8-0.3-1.8-0.3-1.8,1.6
				c0,2.7-0.2,3-2.9,3c-2.9,0-5.8,0-8.7,0c-1.9,0-2.3-0.5-2.3-2.3c0-2.5-0.1-2.6-2.6-2.1c-22.1,4.6-36.4,17.7-42.8,39.3
				c-1.1,3.6-1.5,7.3-1.7,11.1c-0.1,0.9,0.2,1.2,1.1,1.2c4,0,4,0.1,4,4.1c0,2.6,0,5.1,0,7.7c0,1.7-0.6,2.2-2.3,2.2
				c-3.2,0-6.3,0-9.5,0c-1.6,0-2.2-0.6-2.2-2.1c0-3.2,0-6.4,0-9.6c0-1.7,0.5-2.2,2.3-2.2c2.9-0.1,2.9-0.1,3.2-2.9
				c2.4-23.8,15.1-39.9,36.8-49.5c-0.1-0.3-0.5-0.1-0.8-0.1c-8.9,0-17.7,0-26.6,0c-0.8,0-1.2,0.2-1.5,1c-1.4,3.2-4.7,4.8-8,4.1
				c-3.1-0.7-5.3-3.6-5.4-6.8c0-3.3,2.3-6.2,5.6-6.9c3.2-0.7,6.5,1,7.8,4.1c0.3,0.8,0.8,1,1.5,1c13.3,0,26.5,0,39.8,0
				c1.1,0,1.3-0.4,1.3-1.4c0-3.9,0-3.9,3.9-3.9c2.6,0,5.1,0,7.7,0c1.8,0,2.3,0.5,2.3,2.3c0.1,2.9,0.1,2.9,3,2.9
				c12.6,0,25.2,0,37.9,0c1,0,1.4-0.2,1.9-1.2c1.3-3,4.7-4.6,7.8-3.9c3.2,0.7,5.5,3.6,5.5,6.8c0,3.3-2.3,6.2-5.5,6.8
				c-3.2,0.7-6.5-0.9-7.8-3.9c-0.4-0.9-0.8-1.2-1.8-1.2C168.6,61.7,159.5,61.7,150.4,61.7z"/>
			<path class="st1" d="M129.8,185.8c-9.6,0-19.2,0-28.8,0c-2.2,0-2.7-0.5-2.7-2.6c0-3,0-6,0-9c0-1.8,0.6-2.3,2.4-2.3
				c19.4,0,38.9,0,58.3,0c1.8,0,2.3,0.6,2.4,2.3c0,3.1,0,6.1,0,9.2c0,1.9-0.6,2.5-2.5,2.5C149.1,185.8,139.4,185.8,129.8,185.8z"/>
			<path class="st1" d="M129.9,189.4c8.2,0,16.3,0,24.5,0c1.4,0,1.6,0.4,1.6,1.7c-0.1,3.4,0,6.7,0,10.1c0,1.7-0.5,2.2-2.2,2.2
				c-16,0-32,0-47.9,0c-1.7,0-2.2-0.5-2.2-2.3c0-3.5,0-7,0-10.5c0-1.1,0.4-1.2,1.3-1.2C113.2,189.4,121.6,189.4,129.9,189.4z"/>
		</g>
	</g>
</g>
</svg>
