<?xml version="1.0" encoding="utf-8"?>
<!-- Generator: Adobe Illustrator 27.8.0, SVG Export Plug-In . SVG Version: 6.00 Build 0)  -->
<svg version="1.1" id="Calque_2_00000029763334995726528230000016882538965342759307_"
	 xmlns="http://www.w3.org/2000/svg" xmlns:xlink="http://www.w3.org/1999/xlink" x="0px" y="0px" viewBox="0 0 256.8 255.7"
	 style="enable-background:new 0 0 256.8 255.7;" xml:space="preserve">
<style type="text/css">
	.st0{fill:#2952A0;}
	.st1{fill:#FFFFFF;}
</style>
<circle class="st0" cx="128.8" cy="127.8" r="127.6"/>
<path class="st1" d="M44,116.4c0.7,0.7,1.6,1,2.5,1s1.8-0.3,2.5-1l30.1-29.5l7.1,13.1c0.6,1.1,1.8,1.8,3.1,1.8h0.1
	c1.3,0,2.5-0.8,3.1-2l23-47.4c0.6-1.3,0.4-2.8-0.6-3.9c-1-1.1-2.5-1.4-3.8-0.9l-50.8,20c-1.3,0.5-2.1,1.7-2.2,3
	c-0.1,1.3,0.6,2.6,1.7,3.3l14.3,8.3l-29.8,29.3C42.7,112.8,42.7,115,44,116.4z M82,78.7l-12.6-7.3l35.7-14L89,90.7l-5.8-10.6
	C83,79.5,82.5,79.1,82,78.7z"/>
<path class="st1" d="M42.4,122.6v3c0,23,8.8,45,24.7,61.8c16.1,17,37.5,26.4,60.1,26.4c47,0,85.2-38.4,85.2-85.6
	c0-47.7-36.5-85-83-85h-3l-0.4,80.2L42.4,122.6z M125.9,129.4l-0.2,43.4c-8.6,0.1-16.2,1-22.5,2.3c-1.3,0.3-2.5,0.5-3.7,0.8
	c-7.3-15.4-11.2-31-11.6-46.8L125.9,129.4z M132.2,82.3c8.5-0.2,17-1.5,24.6-3.2c2.5,5.3,4.9,11.2,6.8,17.6
	c2.7,9.1,4.2,18.1,4.6,27.1l-36.2-0.3L132.2,82.3z M168.2,129.8c-0.3,15.6-4.1,31.1-11.5,46.4c-8.9-2.1-17.3-3.1-24.9-3.4l0.2-43.4
	L168.2,129.8z M132.3,49.2c1.8,0.1,3.5,0.2,5.2,0.4l-0.2,0.2c0.1,0.1,8.6,8.9,16.6,23.7c-6.8,1.4-14.3,2.5-21.8,2.8L132.3,49.2z
	 M146.4,51.1c11.9,2.7,22.7,8.1,31.7,15.6c-4,1.5-10.5,3.6-18.1,5.5C155.1,62.7,150,55.6,146.4,51.1z M206.2,124.1l-32.2-0.3
	c-0.3-10.9-2.3-20.7-4.8-29.1c-1.9-6.2-4.1-11.9-6.5-17c9.5-2.4,17-5.1,20.4-6.5C196.6,84.6,205.2,103.2,206.2,124.1z M182.7,184.8
	c-7-3-13.7-5.4-20.2-7.2c8.1-17.2,11.2-33.4,11.6-47.8l32.2,0.3C205.8,151.5,196.9,170.8,182.7,184.8z M177.8,189.3
	c-9.3,7.8-20.3,13.5-32.4,16.4c5.8-7.6,10.5-15.2,14.4-22.5C165.6,184.7,171.6,186.7,177.8,189.3z M131.6,207.7l0.1-28.8
	c6.8,0.3,14.2,1.1,22.1,2.9c-4.6,8.6-10.4,17.1-17.3,25.5C134.9,207.4,133.2,207.6,131.6,207.7z M125.6,207.8
	c-1.9,0-3.7-0.2-5.6-0.3c-7-8.6-12.9-17.3-17.6-26.1c0.8-0.2,1.5-0.3,2.3-0.5c5.9-1.2,12.9-2,21-2.1L125.6,207.8z M111.3,206.1
	c-12-2.6-23.2-8.1-32.9-16.3c3.6-1.8,9.7-4.6,18-7C100.5,190.7,105.5,198.4,111.3,206.1z M48.4,128.7L82,129
	c0.3,16.4,4.3,32.5,11.7,48.4c-10,2.9-16.8,6.4-20.1,8.2c-0.8-0.7-1.5-1.5-2.2-2.3C57.5,168.5,49.2,148.8,48.4,128.7z"/>
</svg>
